<svg fill="none" height="24" viewBox="0 0 24 24" width="24" xmlns="http://www.w3.org/2000/svg"><g stroke="white" stroke-linecap="round" stroke-linejoin="round" stroke-width="1.5"><path d="m18 7v10c0 .62-.02 1.17-.09 1.66-.29 2.63-1.53 3.34-4.91 3.34h-2c-3.38 0-4.62-.71-4.91-3.34-.07-.49-.09-1.04-.09-1.66v-10c0-.62.02-1.17.09-1.66.29-2.63 1.53-3.34 4.91-3.34h2c3.38 0 4.62.71 4.91 3.34.07.49.09 1.04.09 1.66z"/><path d="m6 17.0001c0 .62.02 1.17.09 1.66-.14.01-.27.01-.42.01h-.34c-2.66 0-3.33-.67-3.33-3.34v-6.66002c0-2.67.67-3.34 3.33-3.34h.34c.15 0 .28 0 .42.01-.07.49-.09 1.04-.09 1.66z"/><path d="m22 8.67008v6.66002c0 2.67-.67 3.34-3.33 3.34h-.34c-.15 0-.28 0-.42-.01.07-.49.09-1.04.09-1.66v-10.00002c0-.62-.02-1.17-.09-1.66.14-.01.27-.01.42-.01h.34c2.66 0 3.33.67 3.33 3.34z"/></g></svg>